DataType=double
version=3
OpenSimVersion=4.0
endheader
time	/jointset/gnd_pelvis/pelvis_tilt/value	/jointset/gnd_pelvis/pelvis_tilt/speed	/jointset/gnd_pelvis/pelvis_list/value	/jointset/gnd_pelvis/pelvis_list/speed	/jointset/gnd_pelvis/pelvis_rot/value	/jointset/gnd_pelvis/pelvis_rot/speed	/jointset/gnd_pelvis/pelvis_tx/value	/jointset/gnd_pelvis/pelvis_tx/speed	/jointset/gnd_pelvis/pelvis_ty/value	/jointset/gnd_pelvis/pelvis_ty/speed	/jointset/gnd_pelvis/pelvis_tz/value	/jointset/gnd_pelvis/pelvis_tz/speed	/jointset/hip_r/hip_flex_r/value	/jointset/hip_r/hip_flex_r/speed	/jointset/hip_r/hip_add_r/value	/jointset/hip_r/hip_add_r/speed	/jointset/hip_r/hip_rot_r/value	/jointset/hip_r/hip_rot_r/speed	/jointset/pf_r/pf_flex_r/value	/jointset/pf_r/pf_flex_r/speed	/jointset/pf_r/pf_rot_r/value	/jointset/pf_r/pf_rot_r/speed	/jointset/pf_r/pf_tilt_r/value	/jointset/pf_r/pf_tilt_r/speed	/jointset/pf_r/pf_tx_r/value	/jointset/pf_r/pf_tx_r/speed	/jointset/pf_r/pf_ty_r/value	/jointset/pf_r/pf_ty_r/speed	/jointset/pf_r/pf_tz_r/value	/jointset/pf_r/pf_tz_r/speed	/jointset/knee_r/knee_flex_r/value	/jointset/knee_r/knee_flex_r/speed	/jointset/knee_r/knee_add_r/value	/jointset/knee_r/knee_add_r/speed	/jointset/knee_r/knee_rot_r/value	/jointset/knee_r/knee_rot_r/speed	/jointset/knee_r/knee_tx_r/value	/jointset/knee_r/knee_tx_r/speed	/jointset/knee_r/knee_ty_r/value	/jointset/knee_r/knee_ty_r/speed	/jointset/knee_r/knee_tz_r/value	/jointset/knee_r/knee_tz_r/speed	/jointset/ankle_r/ankle_flex_r/value	/jointset/ankle_r/ankle_flex_r/speed	/jointset/subtalar_r/subt_angle_r/value	/jointset/subtalar_r/subt_angle_r/speed	/jointset/mtp_r/mtp_angle_r/value	/jointset/mtp_r/mtp_angle_r/speed	/jointset/hip_l/hip_flex_l/value	/jointset/hip_l/hip_flex_l/speed	/jointset/hip_l/hip_add_l/value	/jointset/hip_l/hip_add_l/speed	/jointset/hip_l/hip_rot_l/value	/jointset/hip_l/hip_rot_l/speed	/jointset/pf_l/pf_l_r3/value	/jointset/pf_l/pf_l_r3/speed	/jointset/pf_l/pf_l_tx/value	/jointset/pf_l/pf_l_tx/speed	/jointset/pf_l/pf_l_ty/value	/jointset/pf_l/pf_l_ty/speed	/jointset/knee_l/knee_flex_l/value	/jointset/knee_l/knee_flex_l/speed	/jointset/ankle_l/ankle_flex_l/value	/jointset/ankle_l/ankle_flex_l/speed	/jointset/subtalar_l/subt_angle_l/value	/jointset/subtalar_l/subt_angle_l/speed	/jointset/mtp_l/mtp_angle_l/value	/jointset/mtp_l/mtp_angle_l/speed	/jointset/pelvis_torso/lumbar_ext/value	/jointset/pelvis_torso/lumbar_ext/speed	/jointset/pelvis_torso/lumbar_latbend/value	/jointset/pelvis_torso/lumbar_latbend/speed	/jointset/pelvis_torso/lumbar_rot/value	/jointset/pelvis_torso/lumbar_rot/speed	/jointset/torso_neckhead/neck_ext/value	/jointset/torso_neckhead/neck_ext/speed	/jointset/torso_neckhead/neck_latbend/value	/jointset/torso_neckhead/neck_latbend/speed	/jointset/torso_neckhead/neck_rot/value	/jointset/torso_neckhead/neck_rot/speed	/jointset/acromial_r/arm_add_r/value	/jointset/acromial_r/arm_add_r/speed	/jointset/acromial_r/arm_flex_r/value	/jointset/acromial_r/arm_flex_r/speed	/jointset/acromial_r/arm_rot_r/value	/jointset/acromial_r/arm_rot_r/speed	/jointset/elbow_r/elbow_flex_r/value	/jointset/elbow_r/elbow_flex_r/speed	/jointset/radioulnar_r/pro_sup_r/value	/jointset/radioulnar_r/pro_sup_r/speed	/jointset/radius_hand_r/wrist_flex_r/value	/jointset/radius_hand_r/wrist_flex_r/speed	/jointset/acromial_l/arm_add_l/value	/jointset/acromial_l/arm_add_l/speed	/jointset/acromial_l/arm_flex_l/value	/jointset/acromial_l/arm_flex_l/speed	/jointset/acromial_l/arm_rot_l/value	/jointset/acromial_l/arm_rot_l/speed	/jointset/elbow_l/elbow_flex_l/value	/jointset/elbow_l/elbow_flex_l/speed	/jointset/radioulnar_l/pro_sup_l/value	/jointset/radioulnar_l/pro_sup_l/speed	/jointset/radius_hand_l/wrist_flex_l/value	/jointset/radius_hand_l/wrist_flex_l/speed	/forceset/addbrev_r/activation	/forceset/addbrev_r/fiber_length	/forceset/addlong_r/activation	/forceset/addlong_r/fiber_length	/forceset/addmagProx_r/activation	/forceset/addmagProx_r/fiber_length	/forceset/addmagMid_r/activation	/forceset/addmagMid_r/fiber_length	/forceset/addmagDist_r/activation	/forceset/addmagDist_r/fiber_length	/forceset/addmagIsch_r/activation	/forceset/addmagIsch_r/fiber_length	/forceset/bflh_r/activation	/forceset/bflh_r/fiber_length	/forceset/bfsh_r/activation	/forceset/bfsh_r/fiber_length	/forceset/edl_r/activation	/forceset/edl_r/fiber_length	/forceset/ehl_r/activation	/forceset/ehl_r/fiber_length	/forceset/fdl_r/activation	/forceset/fdl_r/fiber_length	/forceset/fhl_r/activation	/forceset/fhl_r/fiber_length	/forceset/gaslat_r/activation	/forceset/gaslat_r/fiber_length	/forceset/gasmed_r/activation	/forceset/gasmed_r/fiber_length	/forceset/gem_r/activation	/forceset/gem_r/fiber_length	/forceset/glmax1_r/activation	/forceset/glmax1_r/fiber_length	/forceset/glmax2_r/activation	/forceset/glmax2_r/fiber_length	/forceset/glmax3_r/activation	/forceset/glmax3_r/fiber_length	/forceset/glmed1_r/activation	/forceset/glmed1_r/fiber_length	/forceset/glmed2_r/activation	/forceset/glmed2_r/fiber_length	/forceset/glmed3_r/activation	/forceset/glmed3_r/fiber_length	/forceset/glmin1_r/activation	/forceset/glmin1_r/fiber_length	/forceset/glmin2_r/activation	/forceset/glmin2_r/fiber_length	/forceset/glmin3_r/activation	/forceset/glmin3_r/fiber_length	/forceset/grac_r/activation	/forceset/grac_r/fiber_length	/forceset/iliacus_r/activation	/forceset/iliacus_r/fiber_length	/forceset/pect_r/activation	/forceset/pect_r/fiber_length	/forceset/perbrev_r/activation	/forceset/perbrev_r/fiber_length	/forceset/perlong_r/activation	/forceset/perlong_r/fiber_length	/forceset/pertert_r/activation	/forceset/pertert_r/fiber_length	/forceset/piri_r/activation	/forceset/piri_r/fiber_length	/forceset/psoas_r/activation	/forceset/psoas_r/fiber_length	/forceset/quadfem_r/activation	/forceset/quadfem_r/fiber_length	/forceset/recfem_r/activation	/forceset/recfem_r/fiber_length	/forceset/sart_r/activation	/forceset/sart_r/fiber_length	/forceset/semimem_r/activation	/forceset/semimem_r/fiber_length	/forceset/semiten_r/activation	/forceset/semiten_r/fiber_length	/forceset/soleus_r/activation	/forceset/soleus_r/fiber_length	/forceset/tfl_r/activation	/forceset/tfl_r/fiber_length	/forceset/tibant_r/activation	/forceset/tibant_r/fiber_length	/forceset/tibpost_r/activation	/forceset/tibpost_r/fiber_length	/forceset/vasint_r/activation	/forceset/vasint_r/fiber_length	/forceset/vaslat_r/activation	/forceset/vaslat_r/fiber_length	/forceset/vasmed_r/activation	/forceset/vasmed_r/fiber_length
1.72	-0.1184127530984187	-0.07310238401098301	-0.004914916823942237	0.005538536475495168	-0.05304725100897618	0.0540352927264264	0.5813000929434499	1.28045070722399	0.9119573386426878	-0.2096660769450219	-0.1886968220506049	-0.06636535621986159	-0.180245738149246	-1.334738239130641	0.08016242125495143	-0.2370829303501316	-0.1918015072508679	-0.2952569117244879	0.1460203494340017	0.2758712228244723	0.01418155639237144	-0.06157126337385654	-0.09508926415180005	-0.02904402697065098	0.04964336918016615	-0.0003298995453981932	0.003640122119426826	-0.006905329255621868	0.004576272829075335	-0.00113407891793862	0.06122296366464795	0.2007677228751185	0.0204377458661468	-0.1038893467531768	-0.0262976636818782	0.8622973335342939	-0.001093457276505684	-0.02496928566188571	0.00171959780878893	-0.00105521841379534	-7.533664493795757e-05	0.0001438517302292305	0.3127965979997461	0.2909229700523783	0.1708426980214592	0.7031156394766908	0	0	0.5061209551917356	-0.2320089515182151	-0.01316970355339524	-0.3481081784416228	0.1377467050926434	0.5230521812182957	0.001136855114871519	8.131516293641277e-18	0.04434999999999903	-9.540979117872431e-16	-0.4187119999999905	4.625929269271481e-15	0.007411441139951333	-2.840379575694657	0.09519852745309786	0.595715424524154	0.04713920154338325	2.32587430419935	0	0	-0.01299903993044142	0.2152996715547985	-0.002020606809715296	-0.08285550949510767	0.2170130727411089	-0.01647000602538645	0.1884502283761358	0.01052609060461749	0	0	0	0	-0.1721634468025159	-0.2792602717641388	0.06560794157694574	0.1857760731613213	-0.1854537617537823	0.966890845360695	0.8220397823179303	0.8035830434097259	0.7790528193021388	-0.0112861630235698	0	0	-0.1228917018162637	-0.3261476452705456	-0.2080299269197789	-1.010210155802821	-0.5187744417545996	-0.8519526693265038	0.4677754274372711	-0.8498701673891653	0.7870264773735616	0.04223077603162554	0	0	0.1872539213048935	0.1	0.2982059800741444	0.1	0.01711544421873692	0.1	0.1231471783449096	0.1	0.06179930876596966	0.1	0.06499117888968661	0.1	0.1898280017909822	0.1	0.2435752250749493	0.1	0.01	0.1	0.01	0.1	0.1316384780655162	0.1	0.1822588640634482	0.1	0.5445949970843892	0.1	0.01	0.1	0.01	0.1	0.01	0.1	0.01	0.1	0.01	0.1	0.04593774088441015	0.1	0.01	0.1	0.01	0.1	0.01	0.1	0.01	0.1	0.01	0.1	0.01	0.1	0.1102189843801162	0.1	0.1233105783463772	0.1	0.1106085128311809	0.1	0.1324291301339043	0.1	0.01	0.1	0.01	0.1	0.03255050555285641	0.1	0.01	0.1	0.01	0.1	0.01	0.1712326517334566	0.09052039389880398	0.1	0.06247949835533632	0.1	0.5856341186635722	0.1	0.01	0.1	0.01	0.1	0.1773955846454102	0.1	0.01	0.1	0.01	0.1	0.01	0.1
1.73	-0.1188399433255163	-0.01101733016246387	-0.004580248945830538	0.06351141262959802	-0.05242432735583694	0.07107943023556909	0.5941898089784805	1.29780049726906	0.909934858312616	-0.1942863661431314	-0.1893889127031013	-0.07205676935241073	-0.1933337514511662	-1.283827403341507	0.07732191523461976	-0.3325815541529601	-0.1944352072724159	-0.2294272908600128	0.147986197260635	0.1965847826633364	0.01330744245931779	-0.0874113933053652	-0.09607543409151939	-0.09861699397193383	0.0496237207874336	-0.001964839273254497	0.003604595938490065	-0.003552618093676134	0.004625489901490244	0.004921707241490807	0.06440697258242578	0.4368874226234665	0.01981975780269906	-0.06179880634477325	-0.01632538207930175	0.9972281602576442	-0.001298512547248516	-0.02050552707428323	0.001718926294205503	-6.715145834275659e-05	-9.839397849194076e-05	-0.002305733355398317	0.3152983608219724	0.2079897118255701	0.1776749670853509	0.6573398767891956	0	0	0.5044190077559079	-0.1129451834237797	-0.01684008719564805	-0.3881845422053897	0.1420613927888423	0.3278241959937257	0.001136855114871519	0	0.04434999999999902	-3.469446951953612e-16	-0.4187119999999905	0	-0.01494130780047509	-1.635811024364505	0.101603480966225	0.6778670795653299	0.068873423690596	2.003435606637661	0	0	-0.01105632441099901	0.1726303096133827	-0.003199286225719243	-0.1550677190065076	0.2167152219892469	-0.04278695983674418	0.1885533176641246	0.01004511294264951	0	0	0	0	-0.1746423162048025	-0.2146933781120453	0.0671565833917849	0.1229122481180077	-0.1763327980245884	0.8529071940212828	0.829707151778684	0.729574412923478	0.7789406510541999	-0.01077599207039101	0	0	-0.1263227728163452	-0.3607452708144244	-0.2178356362101938	-0.9523727905251894	-0.5269307885941288	-0.7766996559619144	0.4592415792840806	-0.8526545969562569	0.7874474967905416	0.04181378201317528	0	0	0.1687916380537468	0.1	0.2868170966106339	0.1	0.01	0.1	0.09082509973935267	0.1	0.02548796531537771	0.1	0.01520785204911297	0.1	0.1364290448640235	0.1	0.3065716158879927	0.1	0.01	0.1	0.01	0.1	0.1366437900320502	0.1	0.1884067103239442	0.1	0.541801994243815	0.1	0.01	0.1	0.01	0.1	0.01	0.1	0.01	0.1	0.01	0.1	0.0338131225934727	0.1	0.01	0.1	0.01	0.1	0.01	0.1	0.01	0.1	0.01	0.1	0.01	0.1	0.129906235542093	0.1	0.1231678013037587	0.1	0.1139049110469989	0.1	0.1363287719845159	0.1	0.01	0.1	0.01	0.1	0.05448035902116458	0.1	0.01	0.1	0.01	0.1	0.01	0.1712326517334566	0.07172331518063035	0.1	0.05783164350628062	0.1	0.6027075143609614	0.1	0.01	0.1	0.01	0.1	0.1840536192224092	0.1	0.01	0.1	0.01021573400638938	0.1	0.01	0.1
1.74	-0.1186135335573331	0.05691983565224112	-0.003604025240494791	0.1336530733697198	-0.05161548381106637	0.09115835663856775	0.6072626907459165	1.317116503578008	0.9080819387968877	-0.1758107104798649	-0.1901380730924981	-0.0777823855683924	-0.205936848345205	-1.237285206291013	0.07348252296491485	-0.4365603400490007	-0.1963600720620423	-0.1546033681877775	0.1491374405759416	0.1151243315306526	0.01217586823881202	-0.1131574220505769	-0.09770965631850809	-0.1634222226988695	0.04960280432904826	-0.002091645838533938	0.003459563143260491	-0.01450327952295733	0.004675749242850595	0.005025934136035182	0.06997166464103852	0.6762928795481824	0.01976604362237793	-0.005371418032112935	-0.005495982740431898	1.082939933886984	-0.001444135037302032	-0.01456224900535163	0.001717542243614482	-0.0001384050591020411	-0.000101538920482763	-0.0003144941990822198	0.3169242888573881	0.1154254399379324	0.1838696567454791	0.5757256680103182	0	0	0.5037539444046039	-0.02615119789582859	-0.02097669885325847	-0.4412037536604516	0.1440957821536307	0.07077057537114911	0.001136855114871519	-8.131516293641277e-18	0.04434999999999902	3.469446951953611e-16	-0.4187119999999905	-4.625929269271481e-15	-0.02551860887640676	-0.495085762559859	0.1085859948358943	0.7092505158043196	0.0868845336403099	1.584400332196055	0	0	-0.009549745345504014	0.128961098944254	-0.005162889905735922	-0.2395238774271991	0.2161695795490649	-0.06545030240109705	0.188650288059552	0.009312779268242265	0	0	0	0	-0.1764260071037791	-0.1407530988020319	0.06803662740682351	0.05121593832396437	-0.1684701456239717	0.7166107680235274	0.8366309714424792	0.6554807720709586	0.7788445109156081	-0.008107904422643506	0	0	-0.1301171866843528	-0.3985092808936108	-0.2271051091556576	-0.9028023141867039	-0.5342677887987199	-0.6893074440333578	0.4508128535216338	-0.8284259407231019	0.7878598520020114	0.04053150154727094	0	0	0.1516625116325135	0.1	0.2592071884669426	0.1	0.01	0.1	0.0814841162276415	0.1	0.02140012603020194	0.1	0.01	0.1	0.1256664924799704	0.1	0.3047440373486343	0.1	0.01	0.1	0.01	0.1	0.1399391070607115	0.1	0.1921375395481477	0.1	0.5329198038806489	0.1	0.02334704284093032	0.1	0.01	0.1	0.01	0.1	0.01	0.1	0.01	0.1	0.01681158806633511	0.1	0.01	0.1	0.01	0.1	0.01	0.1	0.01	0.1	0.01	0.1	0.01	0.1	0.1176138986015947	0.1	0.1114303408847649	0.1	0.1157381139515316	0.1	0.1384532635835799	0.1	0.01	0.1	0.01	0.1	0.05310772857992075	0.1	0.01	0.1	0.01	0.1	0.01	0.1712326517334566	0.0501793338197711	0.1	0.05039506289231343	0.1	0.611910615041064	0.1	0.01	0.1	0.01	0.1	0.188371572523259	0.1	0.01	0.1	0.01504643520122736	0.1	0.01	0.1
1.75	-0.1176966839121441	0.126307629207356	-0.00187205987156281	0.2142978921999678	-0.05059302434043386	0.1136674689147567	0.6205388287096336	1.338426839590247	0.9064277231151782	-0.1546135288861377	-0.1909447225068205	-0.08355675377118536	-0.2180805600338906	-1.191074346311747	0.06856864580344015	-0.5471579150049188	-0.197522426168412	-0.07832490518770216	0.1492633388814154	0.01258983054738815	0.01067536679986149	-0.150050143895053	-0.1000628020487464	-0.2353145730238313	0.04956906949466802	-0.003373483438024596	0.003187957332704792	-0.02716058105556994	0.004726518495361463	0.005076925251086719	0.07793608560667561	0.9166749664587505	0.01984923634283672	0.008319272045878907	0.006976920506231323	1.247290324666321	-0.001605948565696686	-0.0161813528394653	0.001710190212405434	-0.000735203120904876	-0.0001171031322002072	-0.001556421171744425	0.317562404235086	0.009521552356760513	0.1890779738749515	0.4607626831654615	0	0	0.5037660939898534	0.02186009715811572	-0.02570197805275585	-0.5055170139557276	0.1433633600849285	-0.2200460992343349	0.001136855114871519	8.131516293641277e-18	0.04434999999999903	9.540979117872429e-16	-0.4187119999999906	0	-0.02523471882925635	0.5286003554446272	0.1155895417560601	0.681171949808337	0.1003228452055928	1.094192798557182	0	0	-0.008463340637835092	0.08939181540000701	-0.008022550965614543	-0.3337785600262915	0.2154285094855876	-0.08146885364238465	0.1887390118318401	0.008413182705896062	0	0	0	0	-0.1774375332712044	-0.06087245898575665	0.06813671495758684	-0.03367661064528647	-0.1620452559711998	0.5669384799973322	0.8428290253343383	0.5850653766372217	0.7787848732026601	-0.003531164560273411	0	0	-0.1342970471445748	-0.4374940812786522	-0.2359137637157403	-0.8598149321553474	-0.5407033578592773	-0.5978718445317581	0.4427645556546999	-0.7768863917350332	0.7882561592336814	0.03866332843393037	0	0	0.1383152620409636	0.1	0.2320927415440558	0.1	0.01704961558042069	0.1	0.07699944178876678	0.1	0.02078292865684996	0.1	0.01	0.1	0.1015838909912213	0.1	0.2861096380157075	0.1	0.01	0.1	0.01	0.1	0.1421845039439807	0.1	0.194431437618662	0.1	0.5249049803550561	0.1	0.03594700925068768	0.1	0.01	0.1	0.01	0.1	0.01	0.1	0.01	0.1	0.01	0.1	0.01	0.1	0.01	0.1	0.01	0.1	0.01	0.1	0.01	0.1	0.01	0.1	0.09985250511571168	0.1	0.1013854198592153	0.1	0.1167392171771957	0.1	0.1395623218545188	0.1	0.01	0.1	0.01	0.1	0.05315063046452226	0.1	0.01	0.1	0.01	0.1	0.01559490499760507	0.1712326517334566	0.02771677309219014	0.1	0.04239661189197116	0.1	0.6166141594823414	0.1	0.01	0.1	0.01	0.1	0.1912493981413129	0.1	0.01	0.1	0.02030979318623887	0.1	0.01	0.1
